<?xml version="1.0" encoding="UTF-8" standalone="no"?>
<svg
   viewBox="0 0 36 36"
   version="1.1"
   id="svg1"
   sodipodi:docname="dwarf.svg"
   inkscape:version="1.4 (e7c3feb100, 2024-10-09)"
   xmlns:inkscape="http://www.inkscape.org/namespaces/inkscape"
   xmlns:sodipodi="http://sodipodi.sourceforge.net/DTD/sodipodi-0.dtd"
   xmlns="http://www.w3.org/2000/svg"
   xmlns:svg="http://www.w3.org/2000/svg">
  <defs
     id="defs1" />
  <sodipodi:namedview
     id="namedview1"
     pagecolor="#505050"
     bordercolor="#eeeeee"
     borderopacity="1"
     inkscape:showpageshadow="0"
     inkscape:pageopacity="0"
     inkscape:pagecheckerboard="0"
     inkscape:deskcolor="#505050"
     inkscape:zoom="9.2638889"
     inkscape:cx="13.331334"
     inkscape:cy="20.401799"
     inkscape:window-width="1440"
     inkscape:window-height="900"
     inkscape:window-x="0"
     inkscape:window-y="0"
     inkscape:window-maximized="1"
     inkscape:current-layer="svg1" />
  <path
     fill="#31373D"
     d="M13.574 11.235c1.335.971 2.631.43 2.882-1.201l1.088-7.069c.251-1.631.661-1.631.912 0l1.088 7.069c.251 1.631 1.548 2.171 2.882 1.201l6.148-4.471c1.334-.971 1.632-.673.661.662l-4.471 6.147c-.971 1.335-.431 2.631 1.2 2.882l7.07 1.088c1.631.251 1.631.661 0 .912l-7.07 1.088c-1.631.251-2.171 1.548-1.2 2.882l4.471 6.148c.971 1.334.673 1.632-.661.661l-6.148-4.471c-1.334-.971-2.631-.431-2.882 1.2l-1.088 7.07c-.251 1.631-.661 1.631-.912 0l-1.088-7.07c-.251-1.631-1.548-2.171-2.882-1.2l-6.147 4.471c-1.334.971-1.581.713-.546-.573l5.085-6.324c1.034-1.286.542-2.523-1.092-2.748l-8.057-1.113c-1.634-.226-1.638-.62-.008-.876l7.228-1.135c1.63-.256 2.17-1.558 1.199-2.892L6.765 7.426c-.971-1.334-.673-1.632.661-.661l6.148 4.47z"
     id="path1"
     style="fill:#e87246;fill-opacity:1" />
</svg>
