<svg width="256" xmlns="http://www.w3.org/2000/svg" height="256" fill="none"><defs><clipPath id="a" class="frame-clip frame-clip-def"><rect rx="0" ry="0" width="256" height="256" transform="matrix(1.000000, 0.000000, 0.000000, 1.000000, 0.000000, 0.000000)"/></clipPath></defs><g clip-path="url(#a)"><g class="fills"><rect rx="0" ry="0" width="256" height="256" transform="matrix(1.000000, 0.000000, 0.000000, 1.000000, 0.000000, 0.000000)" class="frame-background"/></g><g class="frame-children"><g class="fills"><rect rx="0" ry="0" width="256" height="256" transform="matrix(1.000000, 0.000000, 0.000000, 1.000000, 0.000000, 0.000000)" class="frame-background"/></g><g class="frame-children"><path d="M98.493,82.900C107.393,89.373,116.033,85.767,117.707,74.893L124.960,27.767C126.633,16.893,129.367,16.893,131.040,27.767L138.293,74.893C139.967,85.767,148.613,89.367,157.507,82.900L198.493,53.093C207.387,46.620,209.373,48.607,202.900,57.507L173.093,98.487C166.620,107.387,170.220,116.027,181.093,117.700L228.227,124.953C239.100,126.627,239.100,129.360,228.227,131.033L181.093,138.287C170.220,139.960,166.620,148.607,173.093,157.500L202.900,198.487C209.373,207.380,207.387,209.367,198.493,202.893L157.507,173.087C148.613,166.613,139.967,170.213,138.293,181.087L131.040,228.220C129.367,239.093,126.633,239.093,124.960,228.220L117.707,181.087C116.033,170.213,107.387,166.613,98.493,173.087L57.513,202.893C48.620,209.367,46.973,207.647,53.873,199.073L87.773,156.913C94.667,148.340,91.387,140.093,80.493,138.593L26.780,131.173C15.887,129.667,15.860,127.040,26.727,125.333L74.913,117.767C85.780,116.060,89.380,107.380,82.907,98.487L53.100,57.507C46.627,48.613,48.613,46.627,57.507,53.100L98.493,82.900ZZ" style="fill: rgb(0, 0, 0);" class="fills"/></g></g></g></svg>